<svg width="20" height="20" viewBox="0 0 20 20" fill="none" xmlns="http://www.w3.org/2000/svg">
<path d="M10 13.836L6.16401 9.99998L10 6.16398L11.0992 7.26314L9.15178 9.21054H13.9474V10.7894H9.15178L11.0992 12.7368L10 13.836ZM9.99825 20C11.3813 20 12.6814 19.7375 13.8984 19.2126C15.1154 18.6877 16.174 17.9753 17.0742 17.0755C17.9745 16.1756 18.6871 15.1175 19.2123 13.901C19.7374 12.6846 20 11.3848 20 10.0017C20 8.61866 19.7375 7.31862 19.2126 6.10164C18.6877 4.88464 17.9753 3.82602 17.0755 2.92579C16.1757 2.02555 15.1175 1.31285 13.9011 0.787713C12.6846 0.262572 11.3849 0 10.0018 0C8.61869 0 7.31865 0.262458 6.10167 0.78737C4.88467 1.31228 3.82605 2.02465 2.92583 2.92448C2.02558 3.82432 1.31288 4.88247 0.787743 6.09893C0.262602 7.31537 3.05176e-05 8.61513 3.05176e-05 9.99822C3.05176e-05 11.3813 0.262489 12.6813 0.787401 13.8983C1.31231 15.1153 2.02468 16.1739 2.92451 17.0742C3.82435 17.9744 4.8825 18.6871 6.09896 19.2123C7.3154 19.7374 8.61516 20 9.99825 20ZM10 18.421C7.64914 18.421 5.65791 17.6053 4.02632 15.9737C2.39474 14.3421 1.57895 12.3509 1.57895 9.99998C1.57895 7.6491 2.39474 5.65788 4.02632 4.02629C5.65791 2.39471 7.64914 1.57892 10 1.57892C12.3509 1.57892 14.3421 2.39471 15.9737 4.02629C17.6053 5.65788 18.4211 7.6491 18.4211 9.99998C18.4211 12.3509 17.6053 14.3421 15.9737 15.9737C14.3421 17.6053 12.3509 18.421 10 18.421Z" fill="#313131"/>
</svg>
