<svg width="40" height="40" viewBox="0 0 40 40" fill="none" xmlns="http://www.w3.org/2000/svg">
<path d="M16.8767 39.2513L16.8766 39.2513C7.59119 37.7566 0.5 29.7054 0.5 20.0007C0.5 9.23103 9.23108 0.5 19.9993 0.5C30.7676 0.5 39.5 9.23108 39.5 20.0007C39.5 29.8489 32.1999 37.9914 22.7166 39.3127C21.8296 39.4358 20.922 39.5 20.0007 39.5C18.937 39.5 17.893 39.4152 16.8767 39.2513Z" stroke="white"/>
<path d="M22.787 16.0573V20.4142H28.1768L27.3233 26.2833H22.787V39.8053C21.8775 39.9314 20.947 39.9973 20.0025 39.9973C18.9122 39.9973 17.8415 39.9104 16.7989 39.7422V26.2833H11.8281V20.4142H16.7989V15.0833C16.7989 11.776 19.4797 9.09375 22.7884 9.09375V9.09655C22.7982 9.09655 22.8067 9.09375 22.8165 9.09375H28.1782V14.1696H24.6747C23.6335 14.1696 22.7884 15.0146 22.7884 16.0559L22.787 16.0573Z" fill="white"/>
</svg>
