<svg width="40" height="41" viewBox="0 0 40 41" fill="none" xmlns="http://www.w3.org/2000/svg">
<path d="M19.9545 0.757812H20.0455C30.7899 0.757812 39.5 9.46787 39.5 20.2123V20.3034C39.5 31.0478 30.7899 39.7578 20.0455 39.7578H19.9545C9.21007 39.7578 0.5 31.0478 0.5 20.3034V20.2123C0.5 9.46787 9.21007 0.757812 19.9545 0.757812Z" stroke="white"/>
<path d="M9.78897 13.6498C9.26204 13.1607 9 12.5553 9 11.835C9 11.1147 9.26345 10.4826 9.78897 9.99214C10.3159 9.50306 10.9942 9.25781 11.8252 9.25781C12.6562 9.25781 13.3079 9.50306 13.8334 9.99214C14.3603 10.4812 14.6224 11.0964 14.6224 11.835C14.6224 12.5735 14.3589 13.1607 13.8334 13.6498C13.3065 14.1389 12.638 14.3841 11.8252 14.3841C11.0124 14.3841 10.3159 14.1389 9.78897 13.6498ZM14.1795 16.4554V31.4503H9.44143V16.4554H14.1795Z" fill="#FEFFFC"/>
<path d="M29.9489 17.9395C30.9817 19.0606 31.4974 20.5993 31.4974 22.5585V31.1883H26.9976V23.1667C26.9976 22.1787 26.7411 21.4107 26.2296 20.8642C25.7181 20.3177 25.0286 20.043 24.1654 20.043C23.3021 20.043 22.6126 20.3163 22.1011 20.8642C21.5896 21.4107 21.3331 22.1787 21.3331 23.1667V31.1883H16.8066V16.4162H21.3331V18.3753C21.7914 17.7223 22.4094 17.2066 23.1858 16.8268C23.9622 16.447 24.8352 16.2578 25.8064 16.2578C27.5357 16.2578 28.9175 16.8184 29.9489 17.9395Z" fill="#FEFFFC"/>
</svg>
