<svg width="990" height="1027" viewBox="0 0 990 1027" fill="none" xmlns="http://www.w3.org/2000/svg">
<path opacity="0.03" d="M880.006 513.324C880.006 507.147 879.852 501.014 879.588 494.925L989.696 444.828C981.802 383.641 963.082 324.347 934.411 269.719L816.653 295.724C810.059 285.466 803.032 275.544 795.573 265.96L856.001 158.864C814.695 114.28 765.624 77.581 711.184 50.5586L630.817 142.729C619.695 138.333 608.323 134.537 596.702 131.343L584.391 8.24327C525.202 -2.74776 464.494 -2.74776 405.304 8.24327L392.994 131.343C381.388 134.596 370.016 138.391 358.878 142.729L278.512 50.5586C224.07 77.5883 174.993 114.286 133.673 158.864L194.101 265.894C186.642 275.479 179.622 285.4 173.042 295.658L55.2848 269.653C26.6045 324.277 7.88377 383.573 0 444.762L110.108 494.859C109.844 500.948 109.69 507.081 109.69 513.258C109.69 519.435 109.844 525.568 110.108 531.657L0 581.754C7.88377 642.943 26.6045 702.239 55.2848 756.863L173.042 730.858C179.608 741.116 186.627 751.037 194.101 760.621L133.673 867.652C174.993 912.229 224.07 948.927 278.512 975.957L358.878 883.787C370.001 888.183 381.373 891.979 392.994 895.173L405.304 1018.27C464.494 1029.26 525.202 1029.26 584.391 1018.27L596.702 895.173C608.308 891.92 619.68 888.124 630.817 883.787L711.184 975.957C765.624 948.935 814.695 912.236 856.001 867.652L795.573 760.621C803.047 751.037 810.073 741.116 816.653 730.858L934.411 756.863C963.082 702.235 981.802 642.941 989.696 581.754L879.588 531.657C879.852 525.634 880.006 519.501 880.006 513.324ZM494.837 876.533C299.703 876.533 141.52 713.866 141.52 513.324C141.52 312.782 299.703 150.071 494.837 150.071C689.971 150.071 848.154 312.738 848.154 513.28C848.154 713.822 689.971 876.533 494.837 876.533Z" fill="white"/>
<path opacity="0.03" d="M820.235 513.32C820.235 328.672 674.56 178.82 494.901 178.82C315.242 178.82 169.567 328.584 169.567 513.32C169.413 577.285 187.319 639.993 221.225 694.232V646.509L331.135 606.128V802.318C337.026 805.879 343.071 809.242 349.204 812.408V562.494L463.796 520.377V392.419L495.033 360.282V847.821C540.099 847.858 584.653 838.273 625.716 819.706V575.552L583.335 557.46V486.151L610.79 457.904V551.437L640.862 565.989V812.408C685.262 789.382 723.829 756.537 753.629 716.368V657.852L658.689 622.241V606.128L768.599 646.509V694.232C802.497 639.991 820.395 577.283 820.235 513.32ZM525.17 449.705L552.714 421.392V539.281L525.17 529.147V449.705ZM598.085 605.381V648.532L525.17 621.736V578.563L598.085 605.381Z" fill="white"/>
</svg>
