<svg width="19" height="19" viewBox="0 0 19 19" fill="none" xmlns="http://www.w3.org/2000/svg">
<path d="M1.16797 1.12891L4.82422 0.285156C5.01172 0.238281 5.19922 0.261719 5.38672 0.355469C5.57422 0.449219 5.70312 0.589844 5.77344 0.777344L7.46094 4.71484C7.53125 4.87891 7.54297 5.05469 7.49609 5.24219C7.44922 5.40625 7.35547 5.55859 7.21484 5.69922L5.10547 7.42188C5.73828 8.78125 6.59375 10 7.67188 11.0781C8.72656 12.1562 9.94531 13.0117 11.3281 13.6445L13.0508 11.5352C13.1914 11.3945 13.3555 11.3008 13.543 11.2539C13.707 11.207 13.8711 11.2188 14.0352 11.2891L17.9727 12.9766C18.1602 13.0469 18.3008 13.1758 18.3945 13.3633C18.4883 13.5508 18.5117 13.7383 18.4648 13.9258L17.6211 17.582C17.5977 17.793 17.5039 17.957 17.3398 18.0742C17.1758 18.1914 17 18.25 16.8125 18.25C13.8594 18.25 11.1172 17.5117 8.58594 16.0352C6.125 14.582 4.16797 12.625 2.71484 10.1641C1.23828 7.63281 0.5 4.89062 0.5 1.9375C0.5 1.75 0.558594 1.57422 0.675781 1.41016C0.792969 1.24609 0.957031 1.15234 1.16797 1.12891Z" fill="white"/>
</svg>
