<svg width="40" height="41" viewBox="0 0 40 41" fill="none" xmlns="http://www.w3.org/2000/svg">
<path d="M20 0.757812C30.6577 0.757812 39.3189 9.30888 39.4972 19.9245V20.2585C39.4972 30.1067 32.1973 38.2492 22.7144 39.5706C21.8274 39.6936 20.9199 39.7578 19.9986 39.7578C18.9349 39.7578 17.8909 39.673 16.8747 39.5091L16.8746 39.5091C7.59097 38.0144 0.5 29.9633 0.5 20.2585C0.5 9.48885 9.23075 0.757812 20 0.757812Z" stroke="white"/>
<path d="M8.11605 9.08594L17.3397 21.4182L8.05859 31.4452H10.148L18.2744 22.6669L24.8397 31.4452H31.9487L22.2066 18.4192L30.8459 9.08594H28.7565L21.2733 17.1706L15.2265 9.08594H8.11744H8.11605ZM11.1878 10.6247H14.4529L28.8742 29.9065H25.609L11.1878 10.6247Z" fill="white"/>
</svg>
